<svg xmlns="http://www.w3.org/2000/svg" width="2400" height="2300" viewBox="0 0 2400 2300" preserveAspectRatio="none">
  <rect x="0" y="200" width="2400" height="2050" rx="26" fill="#6faea9" stroke="#263644" stroke-width="32"/>
  <rect x="80" y="82" width="2240" height="165" rx="18" fill="#217777" stroke="#263644" stroke-width="16"/>
  <g><rect x="54" y="260.0" width="2292" height="269.7" rx="14" fill="#e9fffb" stroke="#d9e4ea" stroke-width="8"/><rect x="76.0" y="286.0" width="432.0" height="191.7" rx="12" fill="#ffffff" opacity=".82"/><rect x="530.0" y="286.0" width="432.0" height="191.7" rx="12" fill="#ffffff" opacity=".82"/><rect x="984.0" y="286.0" width="432.0" height="191.7" rx="12" fill="#ffffff" opacity=".82"/><rect x="1438.0" y="286.0" width="432.0" height="191.7" rx="12" fill="#ffffff" opacity=".82"/><rect x="1892.0" y="286.0" width="432.0" height="191.7" rx="12" fill="#ffffff" opacity=".82"/></g>
  <g><rect x="54" y="541.7" width="2292" height="269.7" rx="14" fill="#e9fffb" stroke="#d9e4ea" stroke-width="8"/><rect x="76.0" y="567.7" width="432.0" height="191.7" rx="12" fill="#ffffff" opacity=".82"/><rect x="530.0" y="567.7" width="432.0" height="191.7" rx="12" fill="#ffffff" opacity=".82"/><rect x="984.0" y="567.7" width="432.0" height="191.7" rx="12" fill="#ffffff" opacity=".82"/><rect x="1438.0" y="567.7" width="432.0" height="191.7" rx="12" fill="#ffffff" opacity=".82"/><rect x="1892.0" y="567.7" width="432.0" height="191.7" rx="12" fill="#ffffff" opacity=".82"/></g>
  <g><rect x="54" y="823.4" width="2292" height="269.7" rx="14" fill="#e9fffb" stroke="#d9e4ea" stroke-width="8"/><rect x="76.0" y="849.4" width="432.0" height="191.7" rx="12" fill="#ffffff" opacity=".82"/><rect x="530.0" y="849.4" width="432.0" height="191.7" rx="12" fill="#ffffff" opacity=".82"/><rect x="984.0" y="849.4" width="432.0" height="191.7" rx="12" fill="#ffffff" opacity=".82"/><rect x="1438.0" y="849.4" width="432.0" height="191.7" rx="12" fill="#ffffff" opacity=".82"/><rect x="1892.0" y="849.4" width="432.0" height="191.7" rx="12" fill="#ffffff" opacity=".82"/></g>
  <g><rect x="54" y="1105.1" width="2292" height="269.7" rx="14" fill="#e9fffb" stroke="#d9e4ea" stroke-width="8"/><rect x="76.0" y="1131.1" width="432.0" height="191.7" rx="12" fill="#ffffff" opacity=".82"/><rect x="530.0" y="1131.1" width="432.0" height="191.7" rx="12" fill="#ffffff" opacity=".82"/><rect x="984.0" y="1131.1" width="432.0" height="191.7" rx="12" fill="#ffffff" opacity=".82"/><rect x="1438.0" y="1131.1" width="432.0" height="191.7" rx="12" fill="#ffffff" opacity=".82"/><rect x="1892.0" y="1131.1" width="432.0" height="191.7" rx="12" fill="#ffffff" opacity=".82"/></g>
  <g><rect x="54" y="1386.9" width="2292" height="269.7" rx="14" fill="#e9fffb" stroke="#d9e4ea" stroke-width="8"/><rect x="76.0" y="1412.9" width="432.0" height="191.7" rx="12" fill="#ffffff" opacity=".82"/><rect x="530.0" y="1412.9" width="432.0" height="191.7" rx="12" fill="#ffffff" opacity=".82"/><rect x="984.0" y="1412.9" width="432.0" height="191.7" rx="12" fill="#ffffff" opacity=".82"/><rect x="1438.0" y="1412.9" width="432.0" height="191.7" rx="12" fill="#ffffff" opacity=".82"/><rect x="1892.0" y="1412.9" width="432.0" height="191.7" rx="12" fill="#ffffff" opacity=".82"/></g>
  <g><rect x="54" y="1668.6" width="2292" height="269.7" rx="14" fill="#e9fffb" stroke="#d9e4ea" stroke-width="8"/><rect x="76.0" y="1694.6" width="432.0" height="191.7" rx="12" fill="#ffffff" opacity=".82"/><rect x="530.0" y="1694.6" width="432.0" height="191.7" rx="12" fill="#ffffff" opacity=".82"/><rect x="984.0" y="1694.6" width="432.0" height="191.7" rx="12" fill="#ffffff" opacity=".82"/><rect x="1438.0" y="1694.6" width="432.0" height="191.7" rx="12" fill="#ffffff" opacity=".82"/><rect x="1892.0" y="1694.6" width="432.0" height="191.7" rx="12" fill="#ffffff" opacity=".82"/></g>
  <g><rect x="54" y="1950.3" width="2292" height="269.7" rx="14" fill="#e9fffb" stroke="#d9e4ea" stroke-width="8"/><rect x="76.0" y="1976.3" width="432.0" height="191.7" rx="12" fill="#ffffff" opacity=".82"/><rect x="530.0" y="1976.3" width="432.0" height="191.7" rx="12" fill="#ffffff" opacity=".82"/><rect x="984.0" y="1976.3" width="432.0" height="191.7" rx="12" fill="#ffffff" opacity=".82"/><rect x="1438.0" y="1976.3" width="432.0" height="191.7" rx="12" fill="#ffffff" opacity=".82"/><rect x="1892.0" y="1976.3" width="432.0" height="191.7" rx="12" fill="#ffffff" opacity=".82"/></g>
  <g><rect x="0" y="520.7" width="2400" height="18" fill="#243241" opacity=".86"/><rect x="0" y="802.4" width="2400" height="18" fill="#243241" opacity=".86"/><rect x="0" y="1084.1" width="2400" height="18" fill="#243241" opacity=".86"/><rect x="0" y="1365.9" width="2400" height="18" fill="#243241" opacity=".86"/><rect x="0" y="1647.6" width="2400" height="18" fill="#243241" opacity=".86"/><rect x="0" y="1929.3" width="2400" height="18" fill="#243241" opacity=".86"/><rect x="0" y="2211.0" width="2400" height="18" fill="#243241" opacity=".86"/></g>
  <text x="1200" y="185" text-anchor="middle" font-family="Arial, sans-serif" font-size="54" font-weight="800" fill="#fff">종합병원</text>
</svg>
