<svg xmlns="http://www.w3.org/2000/svg" width="2400" height="2300" viewBox="0 0 2400 2300">
  <rect x="0" y="200" width="2400" height="2050" rx="26" fill="#a8b8c8" stroke="#263644" stroke-width="30"/>
  <rect x="80" y="82" width="2240" height="165" rx="18" fill="#34495e" stroke="#263644" stroke-width="16"/>
  <g><rect x="70" y="260.0" width="2260" height="207.1" rx="14" fill="#f2f7fb" opacity=".96"/><rect x="92.0" y="288.0" width="351.0" height="135.1" rx="12" fill="#ffffff" opacity=".68"/><rect x="465.0" y="288.0" width="351.0" height="135.1" rx="12" fill="#ffffff" opacity=".68"/><rect x="838.0" y="288.0" width="351.0" height="135.1" rx="12" fill="#ffffff" opacity=".68"/><rect x="1211.0" y="288.0" width="351.0" height="135.1" rx="12" fill="#ffffff" opacity=".68"/><rect x="1584.0" y="288.0" width="351.0" height="135.1" rx="12" fill="#ffffff" opacity=".68"/><rect x="1957.0" y="288.0" width="351.0" height="135.1" rx="12" fill="#ffffff" opacity=".68"/></g>
  <g><rect x="70" y="479.1" width="2260" height="207.1" rx="14" fill="#f2f7fb" opacity=".96"/><rect x="92.0" y="507.1" width="351.0" height="135.1" rx="12" fill="#ffffff" opacity=".68"/><rect x="465.0" y="507.1" width="351.0" height="135.1" rx="12" fill="#ffffff" opacity=".68"/><rect x="838.0" y="507.1" width="351.0" height="135.1" rx="12" fill="#ffffff" opacity=".68"/><rect x="1211.0" y="507.1" width="351.0" height="135.1" rx="12" fill="#ffffff" opacity=".68"/><rect x="1584.0" y="507.1" width="351.0" height="135.1" rx="12" fill="#ffffff" opacity=".68"/><rect x="1957.0" y="507.1" width="351.0" height="135.1" rx="12" fill="#ffffff" opacity=".68"/></g>
  <g><rect x="70" y="698.2" width="2260" height="207.1" rx="14" fill="#f2f7fb" opacity=".96"/><rect x="92.0" y="726.2" width="351.0" height="135.1" rx="12" fill="#ffffff" opacity=".68"/><rect x="465.0" y="726.2" width="351.0" height="135.1" rx="12" fill="#ffffff" opacity=".68"/><rect x="838.0" y="726.2" width="351.0" height="135.1" rx="12" fill="#ffffff" opacity=".68"/><rect x="1211.0" y="726.2" width="351.0" height="135.1" rx="12" fill="#ffffff" opacity=".68"/><rect x="1584.0" y="726.2" width="351.0" height="135.1" rx="12" fill="#ffffff" opacity=".68"/><rect x="1957.0" y="726.2" width="351.0" height="135.1" rx="12" fill="#ffffff" opacity=".68"/></g>
  <g><rect x="70" y="917.3" width="2260" height="207.1" rx="14" fill="#f2f7fb" opacity=".96"/><rect x="92.0" y="945.3" width="351.0" height="135.1" rx="12" fill="#ffffff" opacity=".68"/><rect x="465.0" y="945.3" width="351.0" height="135.1" rx="12" fill="#ffffff" opacity=".68"/><rect x="838.0" y="945.3" width="351.0" height="135.1" rx="12" fill="#ffffff" opacity=".68"/><rect x="1211.0" y="945.3" width="351.0" height="135.1" rx="12" fill="#ffffff" opacity=".68"/><rect x="1584.0" y="945.3" width="351.0" height="135.1" rx="12" fill="#ffffff" opacity=".68"/><rect x="1957.0" y="945.3" width="351.0" height="135.1" rx="12" fill="#ffffff" opacity=".68"/></g>
  <g><rect x="70" y="1136.4" width="2260" height="207.1" rx="14" fill="#f2f7fb" opacity=".96"/><rect x="92.0" y="1164.4" width="351.0" height="135.1" rx="12" fill="#ffffff" opacity=".68"/><rect x="465.0" y="1164.4" width="351.0" height="135.1" rx="12" fill="#ffffff" opacity=".68"/><rect x="838.0" y="1164.4" width="351.0" height="135.1" rx="12" fill="#ffffff" opacity=".68"/><rect x="1211.0" y="1164.4" width="351.0" height="135.1" rx="12" fill="#ffffff" opacity=".68"/><rect x="1584.0" y="1164.4" width="351.0" height="135.1" rx="12" fill="#ffffff" opacity=".68"/><rect x="1957.0" y="1164.4" width="351.0" height="135.1" rx="12" fill="#ffffff" opacity=".68"/></g>
  <g><rect x="70" y="1355.6" width="2260" height="207.1" rx="14" fill="#f2f7fb" opacity=".96"/><rect x="92.0" y="1383.6" width="351.0" height="135.1" rx="12" fill="#ffffff" opacity=".68"/><rect x="465.0" y="1383.6" width="351.0" height="135.1" rx="12" fill="#ffffff" opacity=".68"/><rect x="838.0" y="1383.6" width="351.0" height="135.1" rx="12" fill="#ffffff" opacity=".68"/><rect x="1211.0" y="1383.6" width="351.0" height="135.1" rx="12" fill="#ffffff" opacity=".68"/><rect x="1584.0" y="1383.6" width="351.0" height="135.1" rx="12" fill="#ffffff" opacity=".68"/><rect x="1957.0" y="1383.6" width="351.0" height="135.1" rx="12" fill="#ffffff" opacity=".68"/></g>
  <g><rect x="70" y="1574.7" width="2260" height="207.1" rx="14" fill="#f2f7fb" opacity=".96"/><rect x="92.0" y="1602.7" width="351.0" height="135.1" rx="12" fill="#ffffff" opacity=".68"/><rect x="465.0" y="1602.7" width="351.0" height="135.1" rx="12" fill="#ffffff" opacity=".68"/><rect x="838.0" y="1602.7" width="351.0" height="135.1" rx="12" fill="#ffffff" opacity=".68"/><rect x="1211.0" y="1602.7" width="351.0" height="135.1" rx="12" fill="#ffffff" opacity=".68"/><rect x="1584.0" y="1602.7" width="351.0" height="135.1" rx="12" fill="#ffffff" opacity=".68"/><rect x="1957.0" y="1602.7" width="351.0" height="135.1" rx="12" fill="#ffffff" opacity=".68"/></g>
  <g><rect x="70" y="1793.8" width="2260" height="207.1" rx="14" fill="#f2f7fb" opacity=".96"/><rect x="92.0" y="1821.8" width="351.0" height="135.1" rx="12" fill="#ffffff" opacity=".68"/><rect x="465.0" y="1821.8" width="351.0" height="135.1" rx="12" fill="#ffffff" opacity=".68"/><rect x="838.0" y="1821.8" width="351.0" height="135.1" rx="12" fill="#ffffff" opacity=".68"/><rect x="1211.0" y="1821.8" width="351.0" height="135.1" rx="12" fill="#ffffff" opacity=".68"/><rect x="1584.0" y="1821.8" width="351.0" height="135.1" rx="12" fill="#ffffff" opacity=".68"/><rect x="1957.0" y="1821.8" width="351.0" height="135.1" rx="12" fill="#ffffff" opacity=".68"/></g>
  <g><rect x="70" y="2012.9" width="2260" height="207.1" rx="14" fill="#f2f7fb" opacity=".96"/><rect x="92.0" y="2040.9" width="351.0" height="135.1" rx="12" fill="#ffffff" opacity=".68"/><rect x="465.0" y="2040.9" width="351.0" height="135.1" rx="12" fill="#ffffff" opacity=".68"/><rect x="838.0" y="2040.9" width="351.0" height="135.1" rx="12" fill="#ffffff" opacity=".68"/><rect x="1211.0" y="2040.9" width="351.0" height="135.1" rx="12" fill="#ffffff" opacity=".68"/><rect x="1584.0" y="2040.9" width="351.0" height="135.1" rx="12" fill="#ffffff" opacity=".68"/><rect x="1957.0" y="2040.9" width="351.0" height="135.1" rx="12" fill="#ffffff" opacity=".68"/></g>
  <g fill="#203040" opacity=".82"><rect x="10" y="473.1" width="2380" height="14"/><rect x="10" y="692.2" width="2380" height="14"/><rect x="10" y="911.3" width="2380" height="14"/><rect x="10" y="1130.4" width="2380" height="14"/><rect x="10" y="1349.6" width="2380" height="14"/><rect x="10" y="1568.7" width="2380" height="14"/><rect x="10" y="1787.8" width="2380" height="14"/><rect x="10" y="2006.9" width="2380" height="14"/></g>
  <text x="1200" y="185" text-anchor="middle" font-family="Arial, sans-serif" font-size="54" font-weight="800" fill="#fff">연구소·실험실</text>
</svg>
