<svg xmlns="http://www.w3.org/2000/svg" width="2400" height="2300" viewBox="0 0 2400 2300">
  <rect x="0" y="200" width="2400" height="2050" rx="26" fill="#a98bcd" stroke="#263644" stroke-width="30"/>
  <rect x="80" y="82" width="2240" height="165" rx="18" fill="#694e94" stroke="#263644" stroke-width="16"/>
  <g><rect x="70" y="260.0" width="2260" height="269.7" rx="14" fill="#f5efff" opacity=".96"/><rect x="92.0" y="288.0" width="724.0" height="197.7" rx="12" fill="#ffffff" opacity=".68"/><rect x="838.0" y="288.0" width="724.0" height="197.7" rx="12" fill="#ffffff" opacity=".68"/><rect x="1584.0" y="288.0" width="724.0" height="197.7" rx="12" fill="#ffffff" opacity=".68"/></g>
  <g><rect x="70" y="541.7" width="2260" height="269.7" rx="14" fill="#f5efff" opacity=".96"/><rect x="92.0" y="569.7" width="724.0" height="197.7" rx="12" fill="#ffffff" opacity=".68"/><rect x="838.0" y="569.7" width="724.0" height="197.7" rx="12" fill="#ffffff" opacity=".68"/><rect x="1584.0" y="569.7" width="724.0" height="197.7" rx="12" fill="#ffffff" opacity=".68"/></g>
  <g><rect x="70" y="823.4" width="2260" height="269.7" rx="14" fill="#f5efff" opacity=".96"/><rect x="92.0" y="851.4" width="724.0" height="197.7" rx="12" fill="#ffffff" opacity=".68"/><rect x="838.0" y="851.4" width="724.0" height="197.7" rx="12" fill="#ffffff" opacity=".68"/><rect x="1584.0" y="851.4" width="724.0" height="197.7" rx="12" fill="#ffffff" opacity=".68"/></g>
  <g><rect x="70" y="1105.1" width="2260" height="269.7" rx="14" fill="#f5efff" opacity=".96"/><rect x="92.0" y="1133.1" width="724.0" height="197.7" rx="12" fill="#ffffff" opacity=".68"/><rect x="838.0" y="1133.1" width="724.0" height="197.7" rx="12" fill="#ffffff" opacity=".68"/><rect x="1584.0" y="1133.1" width="724.0" height="197.7" rx="12" fill="#ffffff" opacity=".68"/></g>
  <g><rect x="70" y="1386.9" width="2260" height="269.7" rx="14" fill="#f5efff" opacity=".96"/><rect x="92.0" y="1414.9" width="724.0" height="197.7" rx="12" fill="#ffffff" opacity=".68"/><rect x="838.0" y="1414.9" width="724.0" height="197.7" rx="12" fill="#ffffff" opacity=".68"/><rect x="1584.0" y="1414.9" width="724.0" height="197.7" rx="12" fill="#ffffff" opacity=".68"/></g>
  <g><rect x="70" y="1668.6" width="2260" height="269.7" rx="14" fill="#f5efff" opacity=".96"/><rect x="92.0" y="1696.6" width="724.0" height="197.7" rx="12" fill="#ffffff" opacity=".68"/><rect x="838.0" y="1696.6" width="724.0" height="197.7" rx="12" fill="#ffffff" opacity=".68"/><rect x="1584.0" y="1696.6" width="724.0" height="197.7" rx="12" fill="#ffffff" opacity=".68"/></g>
  <g><rect x="70" y="1950.3" width="2260" height="269.7" rx="14" fill="#f5efff" opacity=".96"/><rect x="92.0" y="1978.3" width="724.0" height="197.7" rx="12" fill="#ffffff" opacity=".68"/><rect x="838.0" y="1978.3" width="724.0" height="197.7" rx="12" fill="#ffffff" opacity=".68"/><rect x="1584.0" y="1978.3" width="724.0" height="197.7" rx="12" fill="#ffffff" opacity=".68"/></g>
  <g fill="#203040" opacity=".82"><rect x="10" y="535.7" width="2380" height="14"/><rect x="10" y="817.4" width="2380" height="14"/><rect x="10" y="1099.1" width="2380" height="14"/><rect x="10" y="1380.9" width="2380" height="14"/><rect x="10" y="1662.6" width="2380" height="14"/><rect x="10" y="1944.3" width="2380" height="14"/></g>
  <text x="1200" y="185" text-anchor="middle" font-family="Arial, sans-serif" font-size="54" font-weight="800" fill="#fff">방송·공연 스튜디오</text>
</svg>
