<svg xmlns="http://www.w3.org/2000/svg" width="2400" height="2300" viewBox="0 0 2400 2300" preserveAspectRatio="none">
  <rect x="0" y="200" width="2400" height="2050" rx="26" fill="#93a7ba" stroke="#263644" stroke-width="32"/>
  <rect x="80" y="82" width="2240" height="165" rx="18" fill="#30475f" stroke="#263644" stroke-width="16"/>
  <g><rect x="54" y="260.0" width="2292" height="207.1" rx="14" fill="#f4f9fd" stroke="#d9e4ea" stroke-width="8"/><rect x="76.0" y="286.0" width="356.3" height="129.1" rx="12" fill="#ffffff" opacity=".82"/><rect x="454.3" y="286.0" width="356.3" height="129.1" rx="12" fill="#ffffff" opacity=".82"/><rect x="832.7" y="286.0" width="356.3" height="129.1" rx="12" fill="#ffffff" opacity=".82"/><rect x="1211.0" y="286.0" width="356.3" height="129.1" rx="12" fill="#ffffff" opacity=".82"/><rect x="1589.3" y="286.0" width="356.3" height="129.1" rx="12" fill="#ffffff" opacity=".82"/><rect x="1967.7" y="286.0" width="356.3" height="129.1" rx="12" fill="#ffffff" opacity=".82"/></g>
  <g><rect x="54" y="479.1" width="2292" height="207.1" rx="14" fill="#f4f9fd" stroke="#d9e4ea" stroke-width="8"/><rect x="76.0" y="505.1" width="356.3" height="129.1" rx="12" fill="#ffffff" opacity=".82"/><rect x="454.3" y="505.1" width="356.3" height="129.1" rx="12" fill="#ffffff" opacity=".82"/><rect x="832.7" y="505.1" width="356.3" height="129.1" rx="12" fill="#ffffff" opacity=".82"/><rect x="1211.0" y="505.1" width="356.3" height="129.1" rx="12" fill="#ffffff" opacity=".82"/><rect x="1589.3" y="505.1" width="356.3" height="129.1" rx="12" fill="#ffffff" opacity=".82"/><rect x="1967.7" y="505.1" width="356.3" height="129.1" rx="12" fill="#ffffff" opacity=".82"/></g>
  <g><rect x="54" y="698.2" width="2292" height="207.1" rx="14" fill="#f4f9fd" stroke="#d9e4ea" stroke-width="8"/><rect x="76.0" y="724.2" width="356.3" height="129.1" rx="12" fill="#ffffff" opacity=".82"/><rect x="454.3" y="724.2" width="356.3" height="129.1" rx="12" fill="#ffffff" opacity=".82"/><rect x="832.7" y="724.2" width="356.3" height="129.1" rx="12" fill="#ffffff" opacity=".82"/><rect x="1211.0" y="724.2" width="356.3" height="129.1" rx="12" fill="#ffffff" opacity=".82"/><rect x="1589.3" y="724.2" width="356.3" height="129.1" rx="12" fill="#ffffff" opacity=".82"/><rect x="1967.7" y="724.2" width="356.3" height="129.1" rx="12" fill="#ffffff" opacity=".82"/></g>
  <g><rect x="54" y="917.3" width="2292" height="207.1" rx="14" fill="#f4f9fd" stroke="#d9e4ea" stroke-width="8"/><rect x="76.0" y="943.3" width="356.3" height="129.1" rx="12" fill="#ffffff" opacity=".82"/><rect x="454.3" y="943.3" width="356.3" height="129.1" rx="12" fill="#ffffff" opacity=".82"/><rect x="832.7" y="943.3" width="356.3" height="129.1" rx="12" fill="#ffffff" opacity=".82"/><rect x="1211.0" y="943.3" width="356.3" height="129.1" rx="12" fill="#ffffff" opacity=".82"/><rect x="1589.3" y="943.3" width="356.3" height="129.1" rx="12" fill="#ffffff" opacity=".82"/><rect x="1967.7" y="943.3" width="356.3" height="129.1" rx="12" fill="#ffffff" opacity=".82"/></g>
  <g><rect x="54" y="1136.4" width="2292" height="207.1" rx="14" fill="#f4f9fd" stroke="#d9e4ea" stroke-width="8"/><rect x="76.0" y="1162.4" width="356.3" height="129.1" rx="12" fill="#ffffff" opacity=".82"/><rect x="454.3" y="1162.4" width="356.3" height="129.1" rx="12" fill="#ffffff" opacity=".82"/><rect x="832.7" y="1162.4" width="356.3" height="129.1" rx="12" fill="#ffffff" opacity=".82"/><rect x="1211.0" y="1162.4" width="356.3" height="129.1" rx="12" fill="#ffffff" opacity=".82"/><rect x="1589.3" y="1162.4" width="356.3" height="129.1" rx="12" fill="#ffffff" opacity=".82"/><rect x="1967.7" y="1162.4" width="356.3" height="129.1" rx="12" fill="#ffffff" opacity=".82"/></g>
  <g><rect x="54" y="1355.6" width="2292" height="207.1" rx="14" fill="#f4f9fd" stroke="#d9e4ea" stroke-width="8"/><rect x="76.0" y="1381.6" width="356.3" height="129.1" rx="12" fill="#ffffff" opacity=".82"/><rect x="454.3" y="1381.6" width="356.3" height="129.1" rx="12" fill="#ffffff" opacity=".82"/><rect x="832.7" y="1381.6" width="356.3" height="129.1" rx="12" fill="#ffffff" opacity=".82"/><rect x="1211.0" y="1381.6" width="356.3" height="129.1" rx="12" fill="#ffffff" opacity=".82"/><rect x="1589.3" y="1381.6" width="356.3" height="129.1" rx="12" fill="#ffffff" opacity=".82"/><rect x="1967.7" y="1381.6" width="356.3" height="129.1" rx="12" fill="#ffffff" opacity=".82"/></g>
  <g><rect x="54" y="1574.7" width="2292" height="207.1" rx="14" fill="#f4f9fd" stroke="#d9e4ea" stroke-width="8"/><rect x="76.0" y="1600.7" width="356.3" height="129.1" rx="12" fill="#ffffff" opacity=".82"/><rect x="454.3" y="1600.7" width="356.3" height="129.1" rx="12" fill="#ffffff" opacity=".82"/><rect x="832.7" y="1600.7" width="356.3" height="129.1" rx="12" fill="#ffffff" opacity=".82"/><rect x="1211.0" y="1600.7" width="356.3" height="129.1" rx="12" fill="#ffffff" opacity=".82"/><rect x="1589.3" y="1600.7" width="356.3" height="129.1" rx="12" fill="#ffffff" opacity=".82"/><rect x="1967.7" y="1600.7" width="356.3" height="129.1" rx="12" fill="#ffffff" opacity=".82"/></g>
  <g><rect x="54" y="1793.8" width="2292" height="207.1" rx="14" fill="#f4f9fd" stroke="#d9e4ea" stroke-width="8"/><rect x="76.0" y="1819.8" width="356.3" height="129.1" rx="12" fill="#ffffff" opacity=".82"/><rect x="454.3" y="1819.8" width="356.3" height="129.1" rx="12" fill="#ffffff" opacity=".82"/><rect x="832.7" y="1819.8" width="356.3" height="129.1" rx="12" fill="#ffffff" opacity=".82"/><rect x="1211.0" y="1819.8" width="356.3" height="129.1" rx="12" fill="#ffffff" opacity=".82"/><rect x="1589.3" y="1819.8" width="356.3" height="129.1" rx="12" fill="#ffffff" opacity=".82"/><rect x="1967.7" y="1819.8" width="356.3" height="129.1" rx="12" fill="#ffffff" opacity=".82"/></g>
  <g><rect x="54" y="2012.9" width="2292" height="207.1" rx="14" fill="#f4f9fd" stroke="#d9e4ea" stroke-width="8"/><rect x="76.0" y="2038.9" width="356.3" height="129.1" rx="12" fill="#ffffff" opacity=".82"/><rect x="454.3" y="2038.9" width="356.3" height="129.1" rx="12" fill="#ffffff" opacity=".82"/><rect x="832.7" y="2038.9" width="356.3" height="129.1" rx="12" fill="#ffffff" opacity=".82"/><rect x="1211.0" y="2038.9" width="356.3" height="129.1" rx="12" fill="#ffffff" opacity=".82"/><rect x="1589.3" y="2038.9" width="356.3" height="129.1" rx="12" fill="#ffffff" opacity=".82"/><rect x="1967.7" y="2038.9" width="356.3" height="129.1" rx="12" fill="#ffffff" opacity=".82"/></g>
  <g><rect x="0" y="458.1" width="2400" height="18" fill="#243241" opacity=".86"/><rect x="0" y="677.2" width="2400" height="18" fill="#243241" opacity=".86"/><rect x="0" y="896.3" width="2400" height="18" fill="#243241" opacity=".86"/><rect x="0" y="1115.4" width="2400" height="18" fill="#243241" opacity=".86"/><rect x="0" y="1334.6" width="2400" height="18" fill="#243241" opacity=".86"/><rect x="0" y="1553.7" width="2400" height="18" fill="#243241" opacity=".86"/><rect x="0" y="1772.8" width="2400" height="18" fill="#243241" opacity=".86"/><rect x="0" y="1991.9" width="2400" height="18" fill="#243241" opacity=".86"/><rect x="0" y="2211.0" width="2400" height="18" fill="#243241" opacity=".86"/></g>
  <text x="1200" y="185" text-anchor="middle" font-family="Arial, sans-serif" font-size="54" font-weight="800" fill="#fff">연구소·실험실</text>
</svg>
